# xmcd CD database file
#
# Track frame offsets:
#	150
#	15250
#	26582
#	40260
#	54215
#	64870
#	87287
#	97985
#	113535
#	126177
#	140235
#	158107
#
# Disc length: 2337 seconds
#
# Revision: 0
# Processed by: cddbd v1.5PL3 Copyright (c) Steve Scherf et al.
# Submitted via: CDex 1.51
#
DISCID=91091f0c
DTITLE=Ben Waters - High Pressure
DYEAR=1900
DGENRE=Jazz
TTITLE0=Mess Around
TTITLE1=She Moves Me
TTITLE2=Rockin' Pneumonia and the Boogie Woogie Flu
TTITLE3=Rub a Little Boogie
TTITLE4=Swanee River Boogie
TTITLE5=Something on Your Mind
TTITLE6=RMS Boogie
TTITLE7=Another Night Alone
TTITLE8=High Pressure
TTITLE9=I Gotta Woman
TTITLE10=Sheik of Arable
TTITLE11=Slippin' and Slidin'
EXTD=
EXTT0=
EXTT1=
EXTT2=
EXTT3=
EXTT4=
EXTT5=
EXTT6=
EXTT7=
EXTT8=
EXTT9=
EXTT10=
EXTT11=
PLAYORDER=
